<svg width="17" height="16" viewBox="0 0 17 16" fill="none" xmlns="http://www.w3.org/2000/svg">
<g id="vuesax/bulk/calendar">
<g id="calendar">
<path id="Vector" d="M11.4631 2.37334V1.33334C11.4631 1.06001 11.2417 0.833344 10.9748 0.833344C10.7078 0.833344 10.4864 1.06001 10.4864 1.33334V2.33334H6.25416V1.33334C6.25416 1.06001 6.03278 0.833344 5.76583 0.833344C5.49887 0.833344 5.27749 1.06001 5.27749 1.33334V2.37334C3.51947 2.54001 2.66651 3.61334 2.53628 5.20668C2.52326 5.40001 2.67953 5.56001 2.86184 5.56001H13.8787C14.0676 5.56001 14.2238 5.39334 14.2043 5.20668C14.0741 3.61334 13.2211 2.54001 11.4631 2.37334Z" fill="#292D32"/>
<path id="Vector_2" opacity="0.4" d="M13.5793 6.56C13.9374 6.56 14.2304 6.86 14.2304 7.22666V11.3333C14.2304 13.3333 13.2537 14.6667 10.9748 14.6667H5.76584C3.48693 14.6667 2.51025 13.3333 2.51025 11.3333V7.22666C2.51025 6.86 2.80326 6.56 3.16137 6.56H13.5793Z" fill="#292D32"/>
<g id="Group">
<path id="Vector_3" d="M6.09143 9.99999C5.92213 9.99999 5.75284 9.92665 5.62913 9.80665C5.51193 9.67998 5.44031 9.50665 5.44031 9.33332C5.44031 9.15999 5.51193 8.98666 5.62913 8.85999C5.81145 8.67333 6.09794 8.61331 6.33885 8.71998C6.4235 8.75331 6.49512 8.79999 6.55372 8.85999C6.67092 8.98666 6.74254 9.15999 6.74254 9.33332C6.74254 9.50665 6.67092 9.67998 6.55372 9.80665C6.43001 9.92665 6.26072 9.99999 6.09143 9.99999Z" fill="#292D32"/>
</g>
<g id="Group_2">
<path id="Vector_4" d="M8.37036 9.99999C8.20107 9.99999 8.03178 9.92665 7.90806 9.80665C7.79086 9.67998 7.71924 9.50665 7.71924 9.33332C7.71924 9.15999 7.79086 8.98666 7.90806 8.85999C7.96666 8.79999 8.03829 8.75331 8.12293 8.71998C8.36384 8.61331 8.65034 8.67333 8.83265 8.85999C8.94985 8.98666 9.02147 9.15999 9.02147 9.33332C9.02147 9.50665 8.94985 9.67998 8.83265 9.80665C8.80009 9.83331 8.76754 9.85998 8.73498 9.88664C8.69592 9.91331 8.65685 9.93333 8.61778 9.94666C8.57871 9.96666 8.53965 9.97999 8.50058 9.98666C8.455 9.99333 8.41593 9.99999 8.37036 9.99999Z" fill="#292D32"/>
</g>
<g id="Group_3">
<path id="Vector_5" d="M10.6492 10C10.4799 10 10.3106 9.92666 10.1869 9.80666C10.0697 9.67999 9.99805 9.50666 9.99805 9.33333C9.99805 9.16 10.0697 8.98667 10.1869 8.86C10.252 8.8 10.3171 8.75332 10.4017 8.71999C10.5189 8.66666 10.6492 8.65332 10.7794 8.67999C10.8185 8.68666 10.8575 8.69999 10.8966 8.71999C10.9357 8.73332 10.9747 8.75334 11.0138 8.78001C11.0463 8.80667 11.0789 8.83334 11.1115 8.86C11.2287 8.98667 11.3003 9.16 11.3003 9.33333C11.3003 9.50666 11.2287 9.67999 11.1115 9.80666C11.0789 9.83332 11.0463 9.85999 11.0138 9.88665C10.9747 9.91332 10.9357 9.93334 10.8966 9.94667C10.8575 9.96667 10.8185 9.98 10.7794 9.98667C10.7338 9.99334 10.6882 10 10.6492 10Z" fill="#292D32"/>
</g>
<g id="Group_4">
<path id="Vector_6" d="M6.09143 12.3333C6.00678 12.3333 5.92213 12.3134 5.844 12.28C5.75935 12.2467 5.69424 12.2 5.62913 12.14C5.51193 12.0133 5.44031 11.84 5.44031 11.6667C5.44031 11.4933 5.51193 11.32 5.62913 11.1933C5.69424 11.1333 5.75935 11.0867 5.844 11.0533C5.9612 11 6.09143 10.9867 6.22165 11.0133C6.26072 11.02 6.29978 11.0333 6.33885 11.0533C6.37792 11.0667 6.41699 11.0867 6.45605 11.1134C6.48861 11.14 6.52116 11.1667 6.55372 11.1933C6.67092 11.32 6.74254 11.4933 6.74254 11.6667C6.74254 11.84 6.67092 12.0133 6.55372 12.14C6.52116 12.1667 6.48861 12.2 6.45605 12.22C6.41699 12.2467 6.37792 12.2667 6.33885 12.28C6.29978 12.3 6.26072 12.3133 6.22165 12.32C6.17607 12.3267 6.137 12.3333 6.09143 12.3333Z" fill="#292D32"/>
</g>
<g id="Group_5">
<path id="Vector_7" d="M8.37036 12.3333C8.20107 12.3333 8.03178 12.26 7.90806 12.14C7.79086 12.0133 7.71924 11.84 7.71924 11.6667C7.71924 11.4933 7.79086 11.32 7.90806 11.1933C8.14898 10.9467 8.59174 10.9467 8.83265 11.1933C8.94985 11.32 9.02147 11.4933 9.02147 11.6667C9.02147 11.84 8.94985 12.0133 8.83265 12.14C8.70894 12.26 8.53965 12.3333 8.37036 12.3333Z" fill="#292D32"/>
</g>
<g id="Group_6">
<path id="Vector_8" d="M10.6492 12.3333C10.4799 12.3333 10.3106 12.26 10.1869 12.14C10.0697 12.0133 9.99805 11.84 9.99805 11.6667C9.99805 11.4933 10.0697 11.32 10.1869 11.1933C10.4278 10.9467 10.8705 10.9467 11.1115 11.1933C11.2287 11.32 11.3003 11.4933 11.3003 11.6667C11.3003 11.84 11.2287 12.0133 11.1115 12.14C10.9877 12.26 10.8185 12.3333 10.6492 12.3333Z" fill="#292D32"/>
</g>
</g>
</g>
</svg>
