<svg width="88" height="88" viewBox="0 0 88 88" fill="none" xmlns="http://www.w3.org/2000/svg">
<path id="Ellipse 134" d="M88 44C88 35.2976 85.4194 26.7907 80.5847 19.5549C75.7499 12.3191 68.878 6.67956 60.8381 3.3493C52.7981 0.0190447 43.9512 -0.852302 35.416 0.845448C26.8809 2.5432 19.0408 6.73379 12.8873 12.8873C6.73379 19.0408 2.5432 26.8809 0.845448 35.416C-0.852302 43.9512 0.0190448 52.7981 3.3493 60.8381C6.67956 68.878 12.3191 75.7499 19.5549 80.5847C26.7907 85.4194 35.2976 88 44 88V76.4336C37.5852 76.4336 31.3145 74.5314 25.9808 70.9676C20.6472 67.4037 16.4901 62.3383 14.0352 56.4118C11.5804 50.4853 10.9381 43.964 12.1896 37.6725C13.441 31.381 16.53 25.6019 21.066 21.066C25.6019 16.53 31.381 13.441 37.6725 12.1896C43.964 10.9381 50.4853 11.5804 56.4118 14.0352C62.3383 16.4901 67.4037 20.6472 70.9676 25.9808C74.5314 31.3145 76.4336 37.5852 76.4336 44H88Z" fill="#4CB050"/>
</svg>
