<svg width="11" height="15" viewBox="0 0 11 15" fill="none" xmlns="http://www.w3.org/2000/svg">
<g id="Location">
<path id="Vector" fill-rule="evenodd" clip-rule="evenodd" d="M7.18094 13.1337C8.68486 11.1701 10.5793 8.31728 10.5793 6.4058C10.5793 3.23617 8.24714 0.666672 5.37032 0.666672C2.4935 0.666672 0.161377 3.23617 0.161377 6.4058C0.161377 8.31728 2.05577 11.1701 3.55969 13.1337C4.34432 14.1581 4.73663 14.6703 5.37032 14.6703C6.00401 14.6703 6.39632 14.1581 7.18094 13.1337ZM5.37032 8.66667C4.29151 8.66667 3.41697 7.77124 3.41697 6.66667C3.41697 5.5621 4.29151 4.66667 5.37032 4.66667C6.44913 4.66667 7.32367 5.5621 7.32367 6.66667C7.32367 7.77124 6.44913 8.66667 5.37032 8.66667Z" fill="#979797"/>
</g>
</svg>
